<svg xmlns="http://www.w3.org/2000/svg" width="15" height="15" fill="#9696f3">
   <path d="M7.5 0a7.5 7.5 0 1 0 0 15 7.5 7.5 0 0 0 0-15Zm2.45 1.75a6.25 6.25 0 0 1 3.75 5.13h-2.23a9.43 9.43 0 0 0-1.93-5.13h.4zm-2.05 0a8.21 8.21 0 0 1 2.32 5.13H4.78A8.21 8.21 0 0 1 7.1 1.75zm-2.85 0h.41a9.43 9.43 0 0 0-1.93 5.13H1.3a6.25 6.25 0 0 1 3.75-5.13zm0 11.5A6.25 6.25 0 0 1 1.3 8.12h2.23a9.43 9.43 0 0 0 1.93 5.13h-.4zm2.05 0a8.21 8.21 0 0 1-2.32-5.13h5.44a8.21 8.21 0 0 1-2.32 5.13Zm2.85 0h-.4a9.42 9.42 0 0 0 1.92-5.13h2.23a6.25 6.25 0 0 1-3.75 5.13Z"/>
</svg>